<svg xmlns="http://www.w3.org/2000/svg" data-name="Layer 1" viewBox="0 0 100 125" x="0px" y="0px"><title>116all</title><polygon points="22.76 54 28.7 54 28.7 81.3 39.71 81.3 39.71 86.13 56.46 86.13 56.46 81.3 63.23 81.3 63.23 93.17 77.24 93.17 77.24 98 94 98 94 81.24 77.24 81.24 77.24 85.17 71.23 85.17 71.23 69.29 77.24 69.29 77.24 73.21 94 73.21 94 56.46 77.24 56.46 77.24 61.29 63.23 61.29 63.23 73.3 56.46 73.3 56.46 69.38 39.71 69.38 39.71 73.3 36.7 73.3 36.7 26.7 39.71 26.7 39.71 30.63 56.46 30.63 56.46 26.7 63.23 26.7 63.23 38.71 77.24 38.71 77.24 43.54 94 43.54 94 26.79 77.24 26.79 77.24 30.71 71.23 30.71 71.23 14.83 77.24 14.83 77.24 18.76 94 18.76 94 2 77.24 2 77.24 6.83 63.23 6.83 63.23 18.7 56.46 18.7 56.46 13.87 39.71 13.87 39.71 18.7 28.7 18.7 28.7 46 22.76 46 22.76 41.62 6 41.62 6 58.38 22.76 58.38 22.76 54"/><text x="0" y="115" fill="#000000" font-size="5px" font-weight="bold" font-family="'Helvetica Neue', Helvetica, Arial-Unicode, Arial, Sans-serif">Created by Shaa</text><text x="0" y="120" fill="#000000" font-size="5px" font-weight="bold" font-family="'Helvetica Neue', Helvetica, Arial-Unicode, Arial, Sans-serif">from the Noun Project</text></svg>